<svg xmlns="http://www.w3.org/2000/svg" viewBox="0 0 1200 630">
  <defs>
    <linearGradient id="bgGradient" x1="0%" y1="0%" x2="100%" y2="100%">
      <stop offset="0%" stop-color="#0f172a" />
      <stop offset="50%" stop-color="#052e16" />
      <stop offset="100%" stop-color="#0b1120" />
    </linearGradient>
    <linearGradient id="accentGradient" x1="0%" y1="0%" x2="100%" y2="100%">
      <stop offset="0%" stop-color="#FFBD59" />
      <stop offset="50%" stop-color="#41C185" />
      <stop offset="100%" stop-color="#1FAD74" />
    </linearGradient>
  </defs>
  <rect width="1200" height="630" fill="url(#bgGradient)" />
  <g opacity="0.2" fill="none" stroke="#22c55e" stroke-width="2">
    <circle cx="200" cy="160" r="90" />
    <circle cx="1000" cy="470" r="120" />
    <path d="M1100 80l-80 80" />
    <path d="M150 520l120-120" />
    <path d="M480 540l-140-140" />
    <path d="M680 130l140 140" />
  </g>
  <g transform="translate(600 240)" text-anchor="middle">
    <g transform="translate(0 -20) scale(8)" fill="none" stroke="url(#accentGradient)" stroke-width="0.5">
      <polygon points="0,-6 2.5,-1  -2.5,-1" />
      <polygon points="-5,3 -2.5,8 -7.5,8" />
      <polygon points="5,3 7.5,8 2.5,8" />
      <circle cx="0" cy="2" r="1.3" fill="url(#accentGradient)" stroke="none" />
      <line x1="0" y1="-1" x2="0" y2="0.8" />
      <line x1="-2.5" y1="3" x2="-1.5" y2="3" />
      <line x1="2.5" y1="3" x2="1.5" y2="3" />
    </g>
    <text x="0" y="140" font-family="'Inter', sans-serif" font-size="96" font-weight="700" fill="#f8fafc">TRINITY</text>
    <text x="0" y="200" font-family="'Inter', sans-serif" font-size="36" fill="#cbd5f5" letter-spacing="8">DATA SCIENCE DEMOCRATISED</text>
  </g>
  <rect x="100" y="480" width="1000" height="2" fill="rgba(148, 163, 184, 0.3)" />
  <text x="100" y="540" font-family="'Inter', sans-serif" font-size="28" fill="#94a3b8">Build workflows. Share insights. Accelerate decisions.</text>
</svg>
